<svg width="960" height="640" viewBox="0 0 960 640" fill="none" xmlns="http://www.w3.org/2000/svg">
  <rect width="960" height="640" rx="32" fill="#F3E8D5"/>
  <rect x="48" y="48" width="864" height="544" rx="28" fill="#FFF9EF"/>
  <circle cx="175" cy="170" r="86" fill="#1E7C63" opacity="0.16"/>
  <circle cx="758" cy="462" r="104" fill="#E7A93B" opacity="0.18"/>
  <rect x="120" y="122" width="720" height="76" rx="20" fill="#14372D"/>
  <text x="156" y="170" fill="#FFF9EF" font-family="Arial, sans-serif" font-size="28" font-weight="700">Distribusi Tebet tervalidasi</text>
  <rect x="120" y="234" width="300" height="262" rx="28" fill="#1E7C63"/>
  <rect x="452" y="234" width="388" height="122" rx="28" fill="#F0E5D1"/>
  <rect x="452" y="374" width="388" height="122" rx="28" fill="#FFF3D9"/>
  <circle cx="270" cy="332" r="62" fill="#FFF9EF"/>
  <rect x="200" y="418" width="140" height="24" rx="12" fill="#FFF9EF"/>
  <rect x="484" y="266" width="256" height="24" rx="12" fill="#1E7C63" opacity="0.9"/>
  <rect x="484" y="306" width="188" height="18" rx="9" fill="#1E7C63" opacity="0.35"/>
  <rect x="484" y="406" width="224" height="24" rx="12" fill="#C78314" opacity="0.85"/>
  <rect x="484" y="446" width="172" height="18" rx="9" fill="#C78314" opacity="0.35"/>
  <text x="120" y="546" fill="#57655D" font-family="Arial, sans-serif" font-size="24">Bukti lapangan Iftar Relay · Masjid Raya Tebet</text>
</svg>
